<?xml version="1.0" encoding="utf-8" ?>
<svg xmlns="http://www.w3.org/2000/svg" xmlns:xlink="http://www.w3.org/1999/xlink" width="876" height="680">
	<path fill="#00181B" transform="matrix(1.54497 0 0 1.54545 6.10352e-05 3.05176e-05)" d="M316.886 74.8805C326.009 74.0538 336.556 77.2389 344.316 82.0184C354.458 88.2648 362.488 98.9777 365.197 110.635C368.1 123.124 366.365 136.823 359.465 147.721C355.809 153.496 350.99 158.8 346.727 164.153L327.419 188.48C324.715 191.883 320.504 196.287 318.376 199.961C317.925 200.739 317.708 201.181 317.947 202.039C319.027 202.698 322.894 202.214 324.341 202.243Q347.952 202.706 371.567 202.516C381.288 202.514 392.671 201.612 402.153 203.595C411.468 205.544 419.406 211.703 424.502 219.623C430.186 228.459 431.375 239.401 429.157 249.585Q428.882 250.895 428.517 252.183Q428.151 253.471 427.698 254.731Q427.245 255.99 426.707 257.216Q426.168 258.441 425.546 259.627Q424.924 260.812 424.222 261.952Q423.519 263.092 422.74 264.18Q421.961 265.269 421.109 266.301Q420.256 267.333 419.335 268.304C402.84 285.961 370.185 292.61 348.822 303.622C342.568 306.847 335.737 310.726 330.513 315.496C328.102 317.697 326.235 320.745 323.487 322.523C318.916 323.266 313.753 322.9 309.115 322.905C300.028 322.915 290.928 322.995 281.842 322.855C276.888 322.779 271.976 322.24 267.018 322.509C269.224 319.717 271.986 317.26 274.492 314.731C282.829 306.319 291.709 298.497 300.368 290.426C306.541 284.673 312.479 278.591 318.536 272.708Q331.707 259.962 345.153 247.505C347.878 244.968 350.158 242.421 350.25 238.507C350.307 236.077 349.599 233.652 347.833 231.908C345.828 229.928 343.058 229.483 340.371 229.189C337.269 228.85 334.009 229.031 330.888 229.042L316.494 229.028C296.595 228.978 276.648 229.367 256.758 228.939C258.551 226.353 261.124 224.071 263.23 221.702C266.546 217.973 269.66 214.076 272.956 210.335C275.17 207.823 277.559 205.495 279.666 202.887C282.022 199.873 284.912 197.242 287.457 194.381L302.321 177.424C305.056 174.35 308.408 171.209 310.478 167.646C311.703 165.538 312.301 163.17 312.408 160.74C312.593 156.522 310.925 152.332 308.021 149.27C306.349 147.507 303.829 145.965 301.449 145.445C295.84 144.221 287.904 144.893 282.051 144.907C269.168 144.938 256.233 145.17 243.356 144.882C242.663 149.113 243 153.845 242.981 158.13L242.918 182.41L242.868 285.372C242.832 298.65 243.451 312.041 243.015 325.302C242.983 326.259 243.012 327.754 242.377 328.52C240.933 330.262 194.448 355.315 189.77 357.383C189.39 357.551 188.955 357.599 188.545 357.626C187.819 356.537 188.068 353.226 188.043 351.859C187.871 342.279 188.132 332.676 188.158 323.093L188.184 264.92C188.173 258.602 188.606 251.908 187.984 245.633C187.955 245.34 187.862 245.013 187.651 244.795C187.143 244.274 186.161 243.88 185.481 243.656C182.763 242.756 179.787 242.361 177.008 241.641C172.743 240.537 168.311 238.943 164.21 237.331C158.902 235.244 153.689 232.667 149.336 228.931C144.327 224.632 140.928 219.698 140.464 212.984C140.052 207.016 142.028 200.619 145.983 196.088C148.872 192.78 152.498 190.535 155.885 187.811C167.072 178.815 178.715 170.39 190.043 161.583Q225.694 133.355 261.97 105.935C269.129 100.458 276.161 94.8127 283.365 89.3908C287.185 86.5155 290.983 83.5221 295.118 81.1051C302.008 77.0779 309.028 75.4583 316.886 74.8805Z"/>
</svg>
