<svg width="1000" height="1000" viewBox="0 0 1000 1000" fill="none" xmlns="http://www.w3.org/2000/svg">
<rect width="1000" height="1000" fill="black"/>
<path d="M576.277 150.323C598.314 148.277 623.79 156.159 642.535 167.986C667.033 183.444 686.429 209.954 692.973 238.8C699.985 269.706 695.794 303.605 679.127 330.573C670.296 344.864 658.656 357.989 648.358 371.235L601.72 431.434C595.188 439.855 585.017 450.753 579.876 459.845C578.787 461.77 578.263 462.864 578.84 464.987C581.449 466.618 590.79 465.42 594.285 465.492C632.307 466.256 670.331 466.481 708.359 466.168C731.841 466.163 759.336 463.931 782.24 468.838C804.74 473.661 823.915 488.902 836.224 508.5C849.954 530.366 852.826 557.443 847.468 582.644C847.025 584.805 846.51 586.948 845.922 589.073C845.333 591.197 844.674 593.299 843.944 595.378C843.215 597.455 842.417 599.505 841.55 601.527C840.682 603.548 839.747 605.537 838.746 607.493C837.744 609.448 836.678 611.366 835.548 613.247C834.416 615.128 833.222 616.965 831.968 618.76C830.714 620.557 829.4 622.306 828.028 624.009C826.655 625.711 825.226 627.363 823.743 628.965C783.899 672.659 705.021 689.113 653.419 716.363C638.312 724.343 621.812 733.942 609.193 745.746C603.37 751.192 598.86 758.735 592.222 763.135C581.181 764.973 568.71 764.068 557.506 764.08C535.557 764.105 513.576 764.303 491.628 763.956C479.662 763.768 467.797 762.434 455.821 763.1C461.15 756.191 467.821 750.111 473.874 743.853C494.013 723.037 515.462 703.68 536.378 683.708C551.289 669.472 565.632 654.421 580.263 639.863C601.473 618.836 622.904 598.047 644.556 577.497C651.139 571.219 656.646 564.916 656.868 555.23C657.006 549.217 655.296 543.216 651.03 538.901C646.187 534.001 639.496 532.9 633.005 532.172C625.513 531.333 617.638 531.781 610.099 531.808L575.33 531.774C527.264 531.65 479.082 532.613 431.038 531.553C435.369 525.154 441.584 519.507 446.671 513.645C454.681 504.417 462.203 494.774 470.164 485.516C475.512 479.3 481.283 473.539 486.372 467.086C492.063 459.627 499.044 453.117 505.191 446.037L541.096 404.075C547.702 396.468 555.799 388.696 560.799 379.879C563.758 374.662 565.202 368.803 565.461 362.789C565.908 352.352 561.878 341.983 554.864 334.406C550.825 330.043 544.738 326.227 538.989 324.941C525.441 321.912 506.271 323.575 492.133 323.609C461.014 323.686 429.77 324.26 398.665 323.548C396.991 334.017 397.805 345.727 397.76 356.331L397.607 416.414L397.487 671.202C397.4 704.059 398.895 737.196 397.842 770.012C397.764 772.38 397.834 776.079 396.301 777.975C392.813 782.286 280.528 844.281 269.228 849.399C268.31 849.814 267.26 849.933 266.269 850C264.516 847.305 265.117 839.112 265.057 835.729C264.641 812.023 265.272 788.259 265.334 764.545L265.397 620.591C265.371 604.957 266.417 588.392 264.914 572.864C264.844 572.139 264.619 571.33 264.11 570.79C262.883 569.501 260.511 568.526 258.868 567.972C252.303 565.745 245.114 564.767 238.402 562.986C228.099 560.254 217.394 556.309 207.488 552.32C194.666 547.156 182.074 540.779 171.56 531.534C159.46 520.895 151.25 508.686 150.129 492.072C149.134 477.303 153.907 461.473 163.461 450.261C170.439 442.075 179.198 436.52 187.379 429.779C214.401 407.517 242.525 386.669 269.888 364.875C327.298 318.307 385.211 272.405 443.628 227.17C460.92 213.617 477.906 199.647 495.307 186.23C504.534 179.115 513.709 171.707 523.697 165.726C540.339 155.761 557.296 151.753 576.277 150.323Z" fill="white"/>
</svg>
